<svg width="191" height="176" viewBox="0 0 191 176" fill="none" xmlns="http://www.w3.org/2000/svg">
<path d="M266.032 137.043C286.706 82.6801 379 128.851 379 64.8073C377.819 58.8502 348.727 62.5727 332.484 41.7212C308.856 -8.91819 271.2 5.23158 241.666 5.23158C212.87 -0.726522 192.196 -26.0459 152.325 -17.1094C130.47 -13.5344 100.886 14.6642 88.8266 28.3166C46.7404 76.722 21.6363 62.5727 3.91583 76.7219C-5.22736 89.4018 19.2145 107.518 58.9232 118.799C61.5717 119.552 64.4314 119.469 67.0902 118.754C130.66 101.659 125.135 145.127 166.354 140.022C165.763 177.554 235.021 193.64 266.032 137.043Z" fill="url(#paint0_linear_41_1631)" stroke="#FFF2E4" stroke-width="3"/>
<path d="M261.424 124.679C279.969 81.8881 362.756 118.231 362.756 67.8197C361.696 63.1306 335.602 66.0607 321.031 49.6477C299.838 9.7873 266.06 20.9252 239.568 20.9252C213.739 16.2353 195.194 -3.69462 159.43 3.3397C139.826 6.15371 113.29 28.35 102.473 39.0964C64.7215 77.1982 42.2033 66.0607 26.3082 77.1982C18.103 87.1837 40.0515 101.453 75.6994 110.332C78.0542 110.918 80.5645 110.853 82.9262 110.295C139.999 96.8076 135.03 131.044 172.014 127.024C171.484 156.568 233.608 169.229 261.424 124.679Z" fill="#E5AD70"/>
<path d="M172.014 127.024C171.484 156.568 233.608 169.229 261.424 124.679C279.969 81.8881 362.756 118.231 362.756 67.8197C361.696 63.1306 335.602 66.0607 321.031 49.6477C299.838 9.7873 266.06 20.9252 239.568 20.9252C213.739 16.2353 195.194 -3.69462 159.43 3.3397C139.826 6.15371 113.29 28.35 102.473 39.0964C64.7215 77.1982 42.2033 66.0607 26.3082 77.1982C18.103 87.1837 40.0515 101.453 75.6994 110.332C78.0542 110.918 80.5645 110.853 82.9262 110.295C139.999 96.8076 135.03 131.044 172.014 127.024ZM172.014 127.024C174.316 93.7475 198.841 91.9421 211.09 100.415M205.129 127.024C222.405 118.146 219.986 106.569 211.09 100.415M211.09 100.415C273.346 75.2215 177.312 27.1546 184.598 79.911C185.245 84.6004 205.129 84.6004 197.181 70.5321" stroke="#FFF2E4" stroke-width="3"/>
<path d="M242.49 115.204C255.851 80.3838 315.501 109.957 315.501 68.9361C314.738 65.1204 295.936 67.5047 285.438 54.149C270.167 21.7136 245.83 30.7768 226.742 30.7768C208.131 26.9605 194.769 10.743 169 16.467C154.875 18.7569 135.755 36.8185 127.961 45.5631C100.76 76.5676 84.5355 67.5047 73.0826 76.5676C67.2817 84.5403 82.3982 95.8687 107.232 103.117C109.853 103.882 112.638 103.8 115.286 103.134C154.921 93.1642 151.728 120.345 178.067 117.112C177.685 141.152 222.447 151.455 242.49 115.204Z" fill="#4F3E2C"/>
<path d="M178.067 117.112C177.685 141.152 222.447 151.455 242.49 115.204C255.851 80.3838 315.501 109.957 315.501 68.936C314.738 65.1204 295.936 67.5047 285.438 54.149C270.167 21.7136 245.83 30.7768 226.742 30.7768C208.131 26.9605 194.769 10.743 169 16.467C154.875 18.7569 135.755 36.8185 127.961 45.5631C100.76 76.5676 84.5355 67.5047 73.0826 76.5676C67.2817 84.5403 82.3982 95.8687 107.232 103.117C109.853 103.882 112.638 103.8 115.286 103.134C154.921 93.1642 151.728 120.345 178.067 117.112ZM178.067 117.112C179.726 90.0342 197.397 88.565 206.222 95.4598M201.927 117.112C214.375 109.887 212.632 100.468 206.222 95.4598M206.222 95.4598C251.079 74.9591 181.885 35.8458 187.134 78.775C187.601 82.591 201.927 82.591 196.201 71.1432" stroke="#FFF2E4" stroke-width="2"/>
<defs>
<linearGradient id="paint0_linear_41_1631" x1="379" y1="77.5" x2="2" y2="77.5" gradientUnits="userSpaceOnUse">
<stop offset="0.39" stop-color="#C2A891"/>
<stop offset="0.863772" stop-color="#9B8878"/>
</linearGradient>
</defs>
</svg>
