<svg width="197" height="178" viewBox="0 0 197 178" fill="none" xmlns="http://www.w3.org/2000/svg">
<path d="M-69.0318 139.043C-89.7057 84.6801 -182 130.851 -182 66.8073C-180.819 60.8502 -151.727 64.5727 -135.484 43.7212C-111.856 -6.91819 -74.2002 7.23158 -44.666 7.23158C-15.8702 1.27348 4.80374 -24.0459 44.6749 -15.1094C66.5302 -11.5344 96.1136 16.6642 108.173 30.3166C150.26 78.722 175.364 64.5727 193.084 78.7219C202.227 91.4018 177.786 109.518 138.077 120.799C135.428 121.552 132.569 121.469 129.91 120.754C66.3404 103.659 71.865 147.127 30.6461 142.022C31.2368 179.554 -38.0208 195.64 -69.0318 139.043Z" fill="url(#paint0_linear_41_1624)" stroke="#FFF2E4" stroke-width="3"/>
<path d="M-64.4245 126.679C-82.9688 83.8881 -165.756 120.231 -165.756 69.8197C-164.697 65.1306 -138.602 68.0607 -124.031 51.6477C-102.838 11.7873 -69.0606 22.9252 -42.5686 22.9252C-16.7389 18.2353 1.80547 -1.69462 37.5696 5.3397C57.1737 8.15371 83.7098 30.35 94.5273 41.0964C132.278 79.1982 154.797 68.0607 170.692 79.1982C178.897 89.1837 156.948 103.453 121.3 112.332C118.946 112.918 116.435 112.853 114.074 112.295C57.0006 98.8076 61.9695 133.044 24.9859 129.024C25.5158 158.568 -36.6079 171.229 -64.4245 126.679Z" fill="#E5AD70"/>
<path d="M24.9859 129.024C25.5158 158.568 -36.6079 171.229 -64.4245 126.679C-82.9688 83.8881 -165.756 120.231 -165.756 69.8197C-164.697 65.1306 -138.602 68.0607 -124.031 51.6477C-102.838 11.7873 -69.0606 22.9252 -42.5686 22.9252C-16.7389 18.2353 1.80546 -1.69462 37.5696 5.3397C57.1737 8.15371 83.7098 30.35 94.5273 41.0964C132.278 79.1982 154.797 68.0607 170.692 79.1982C178.897 89.1837 156.948 103.453 121.3 112.332C118.946 112.918 116.435 112.853 114.074 112.295C57.0006 98.8076 61.9695 133.044 24.9859 129.024ZM24.9859 129.024C22.684 95.7475 -1.84143 93.9421 -14.0897 102.415M-8.12904 129.024C-25.4053 120.146 -22.9858 108.569 -14.0897 102.415M-14.0897 102.415C-76.3458 77.2215 19.6875 29.1546 12.4022 81.911C11.7547 86.6004 -8.12904 86.6004 -0.18145 72.5321" stroke="#FFF2E4" stroke-width="3"/>
<path d="M-45.4896 117.204C-58.8512 82.3838 -118.501 111.957 -118.502 70.9361C-117.738 67.1204 -98.9362 69.5047 -88.4378 56.149C-73.1673 23.7136 -48.83 32.7768 -29.7419 32.7768C-11.131 28.9605 2.23069 12.743 27.9996 18.467C42.1248 20.7569 61.2447 38.8185 69.039 47.5631C96.2396 78.5676 112.464 69.5047 123.917 78.5676C129.718 86.5403 114.602 97.8687 89.7676 105.117C87.1473 105.882 84.3615 105.8 81.7143 105.134C42.0788 95.1642 45.2723 122.345 18.9328 119.112C19.3145 143.152 -25.4471 153.455 -45.4896 117.204Z" fill="#4F3E2C"/>
<path d="M18.9328 119.112C19.3145 143.152 -25.4471 153.455 -45.4896 117.204C-58.8512 82.3838 -118.501 111.957 -118.502 70.936C-117.738 67.1204 -98.9362 69.5047 -88.4378 56.149C-73.1673 23.7136 -48.83 32.7768 -29.7419 32.7768C-11.131 28.9605 2.23069 12.743 27.9996 18.467C42.1248 20.7569 61.2447 38.8185 69.039 47.5631C96.2396 78.5676 112.464 69.5047 123.917 78.5676C129.718 86.5403 114.602 97.8687 89.7676 105.117C87.1473 105.882 84.3615 105.8 81.7143 105.134C42.0788 95.1642 45.2723 122.345 18.9328 119.112ZM18.9328 119.112C17.2742 92.0342 -0.396982 90.565 -9.22217 97.4598M-4.92735 119.112C-17.3754 111.887 -15.632 102.468 -9.22217 97.4598M-9.22217 97.4598C-54.0792 76.9591 15.1152 37.8458 9.86593 80.775C9.39933 84.591 -4.92735 84.591 0.799075 73.1432" stroke="#FFF2E4" stroke-width="2"/>
<defs>
<linearGradient id="paint0_linear_41_1624" x1="-182" y1="79.5" x2="195" y2="79.5" gradientUnits="userSpaceOnUse">
<stop offset="0.39" stop-color="#C2A891"/>
<stop offset="0.863772" stop-color="#9B8878"/>
</linearGradient>
</defs>
</svg>
