<svg width="1080" height="1080" viewBox="0 0 1080 1080" fill="none" xmlns="http://www.w3.org/2000/svg">
<g clip-path="url(#clip0_171_41)">
<path d="M203.365 989.009L469.675 285.505L594.588 322.654L811.908 1002.24L613.162 1024.3L580.889 853.649L433.455 846.219L375.642 1024.3L203.365 989.009ZM478.266 712.716L563.94 716.198L525.63 555.298L478.266 712.716Z" fill="#175676"/>
<path d="M596.161 209.634C583.948 235.367 592.764 252.496 598.698 257.843L688.367 239.647C698.887 192.488 652.332 47.6428 569.401 25.3535C484.278 -2.36788 457.186 78.7852 512.166 116.99C533.889 127.551 568.314 115.711 574.574 133.994L596.161 209.634Z" fill="#5F3E1D"/>
<path d="M666.823 222.948L602.506 241.574C591.64 235.3 597.356 224.609 603.367 213.365L603.597 212.935C604.623 207.92 600.397 160.486 581.686 128.343C573.225 113.808 554.646 113.767 537.837 113.217C493.704 111.773 481.609 49.2884 518.332 31.5512C586.612 -1.4283 671.238 161.296 666.823 222.948Z" fill="#77431A"/>
<path d="M616.804 236.745L605.103 239.978C607.766 217.229 609.38 171.531 596.65 157.488C595.425 156.345 594.256 155.41 593.182 154.68C594.442 155.378 595.595 156.324 596.65 157.488C607.302 167.423 622.257 193.093 616.804 236.745Z" fill="#AD5527" fill-opacity="0.7"/>
<path d="M506.063 43.2327C485.263 65.3683 502.94 127.165 558.785 108.545C532.966 108.864 502.908 82.4036 506.063 43.2327Z" fill="#AD5527" fill-opacity="0.7"/>
<g filter="url(#filter0_i_171_41)">
<rect x="647.307" y="479.659" width="96.4482" height="576.68" rx="48.2241" transform="rotate(-12.1112 647.307 479.659)" fill="#F7B03E"/>
<path d="M681.986 523.333C677.399 502.701 691.716 482.93 712.716 480.535V480.535C715.129 480.26 717.437 480.502 718.573 482.648C735.315 514.292 792.782 834.861 826.486 993.441C828.466 1002.76 822.542 1011.9 813.228 1013.9V1013.9C804.99 1015.67 796.862 1011.26 794.519 1003.17C773.02 928.941 706.074 631.678 681.986 523.333Z" fill="#B05125"/>
</g>
<path d="M762.443 251.277L546.346 299.149L583.418 384.7L756.873 346.277L762.443 251.277Z" fill="#AF711C"/>
<path d="M763.685 223.137L532.247 271.283L572.516 359.874L758.285 321.232L763.685 223.137Z" fill="#F8AB41"/>
<path d="M854.386 294.67C793.352 345.447 612.436 385.288 447.16 399.682C454.683 418.521 456.607 437.615 447.268 481.85C433.909 588.899 823.998 501.831 863.45 460.874C955.7 383.829 881.714 281.956 854.386 294.67Z" fill="#7D3A1D"/>
<path d="M467.419 430.194C471.438 459.793 437.415 509.085 522.99 522.018C446.218 496.569 499.858 437.042 467.419 430.194Z" fill="#AA4F27"/>
<path d="M862.523 353.426C828.26 369.809 608.733 427.17 482.953 414.99C574.907 402.573 794.323 374.918 863.943 312.653C912.503 359.87 883.77 418.151 859.781 444.233C871.184 409.675 876.383 365.593 862.523 353.426Z" fill="#AC5024"/>
</g>
<defs>
<filter id="filter0_i_171_41" x="656.341" y="468.457" width="234.428" height="603.214" filterUnits="userSpaceOnUse" color-interpolation-filters="sRGB">
<feFlood flood-opacity="0" result="BackgroundImageFix"/>
<feBlend mode="normal" in="SourceGraphic" in2="BackgroundImageFix" result="shape"/>
<feColorMatrix in="SourceAlpha" type="matrix" values="0 0 0 0 0 0 0 0 0 0 0 0 0 0 0 0 0 0 127 0" result="hardAlpha"/>
<feOffset dx="37.2029" dy="37.2029"/>
<feGaussianBlur stdDeviation="18.6015"/>
<feComposite in2="hardAlpha" operator="arithmetic" k2="-1" k3="1"/>
<feColorMatrix type="matrix" values="0 0 0 0 0 0 0 0 0 0 0 0 0 0 0 0 0 0 0.45 0"/>
<feBlend mode="normal" in2="shape" result="effect1_innerShadow_171_41"/>
</filter>
<clipPath id="clip0_171_41">
<rect width="1080" height="1080" fill="white"/>
</clipPath>
</defs>
</svg>
