<svg width="307" height="492" viewBox="0 0 307 492" fill="none" xmlns="http://www.w3.org/2000/svg">
<path d="M270.877 208.942L192.588 19.1704L137.237 368.643C141.907 361.228 156.485 348.625 177.442 357.536C198.398 366.447 219.139 362.749 227.814 359.463C249.682 342.765 229.002 302.318 246.826 289.079C284.059 261.424 278.991 223.916 270.877 208.942Z" fill="#FFA835"/>
<path d="M54.46 174.665L187.56 18.3739L132.209 367.847C130.059 359.351 120.089 342.86 97.4043 344.859C74.7196 346.859 56.1372 336.932 48.9017 331.126C33.2646 308.488 65.4315 276.411 52.5706 258.312C25.7054 220.504 42.1165 186.399 54.46 174.665Z" fill="#BF7313"/>
<line x1="190.031" y1="18.7654" x2="118.48" y2="470.523" stroke="#473527" stroke-width="5.17799"/>
<path d="M179.66 315.947L186.41 273.329L153.168 268.063L146.418 310.682L179.66 315.947Z" fill="#BB6F17"/>
<path d="M195.003 318.377L146.418 310.682L142.908 332.844L209.393 343.374L195.003 318.377Z" fill="#844117"/>
<path d="M180.19 240.888L158.028 237.378L153.573 265.506L203.01 273.336L180.19 240.888Z" fill="#7B470D"/>
<path d="M196.504 275.801L197.179 271.539L153.708 264.654L153.033 268.916L196.504 275.801Z" fill="#602200"/>
<path d="M141.303 309.872L148.053 267.253L113.958 261.853L107.208 304.472L141.303 309.872Z" fill="#82450E"/>
<path d="M92.7177 302.177L141.303 309.872L137.793 332.034L71.3078 321.504L92.7177 302.177Z" fill="#4F2E05"/>
<path d="M130.752 233.058L152.913 236.568L148.458 264.696L99.0206 256.866L130.752 233.058Z" fill="#3D2201"/>
<path d="M148.053 267.253L148.593 263.844L104.27 256.824L103.73 260.233L148.053 267.253Z" fill="#461E00"/>
<path d="M217.233 84.2366C216.438 84.1107 215.666 84.1716 214.922 84.094C210.5 84.094 208 84.2366 203.5 85C201.151 85.3984 203 85 197.5 86C194.773 86.4959 193.5 87 191.15 87.5772C188.999 88.1055 185.4 89.2 183 90" stroke="#FFF2E4" stroke-width="2.58899" stroke-linecap="round"/>
<path d="M201.32 45.7025C201.058 45.6608 200.802 45.681 200.556 45.6553C199.094 45.6553 198.267 45.7025 196.779 45.9549C196.002 46.0866 196.614 45.9549 194.795 46.2856C193.893 46.4496 193.472 46.6163 192.695 46.8071C191.984 46.9818 190.794 47.3438 190 47.6083" stroke="#FFF2E4" stroke-width="2.58899" stroke-linecap="round"/>
<path d="M180.94 46.4281C180.725 46.2709 180.489 46.1721 180.281 46.0368C178.981 45.3683 178.224 45.0323 176.785 44.5765C176.034 44.3386 176.638 44.5009 174.869 43.9635C173.992 43.6971 173.542 43.6529 172.763 43.4674C172.051 43.2976 170.827 43.0755 170 42.9479" stroke="#FFF2E4" stroke-width="2.58899" stroke-linecap="round"/>
<path d="M174.184 89.3503C173.551 88.8312 172.838 88.4908 172.224 88.0409C168.33 85.7796 166.053 84.6288 161.688 83.0105C159.409 82.1659 161.247 82.7549 155.877 80.8369C153.214 79.8857 151.827 79.6859 149.453 79.0003C147.281 78.3728 143.535 77.5117 141 77" stroke="#FFF2E4" stroke-width="2.58899" stroke-linecap="round"/>
<path d="M244.123 146.163C242.449 145.898 241 145.871 239.256 145.871C233.208 145.789 226.365 145.505 223.792 145.789C214.426 145.982 205.925 148.215 202.845 149.307C198.267 150.631 193.751 152.157 189.166 153.47C186.277 154.147 178.7 156.4 171.5 160" stroke="#FFF2E4" stroke-width="2.58899" stroke-linecap="round"/>
<path d="M163.559 159.448C162.179 158.343 160.87 157.583 159.276 156.698C153.795 153.553 147.701 149.81 145.189 148.78C136.52 144.218 127.491 142.066 124.06 141.56C119.129 140.518 114.14 139.703 109.209 138.648C106.187 137.837 97.9904 136.173 89.3788 136.001" stroke="#FFF2E4" stroke-width="2.58899" stroke-linecap="round"/>
<path d="M141.682 229.543C144.572 211.294 148.479 190.244 136.739 174.085C129.883 164.65 116.22 156.067 103.975 158.678C91.4852 161.341 83.5944 177.796 83.5944 188.764C83.5944 199 92.4497 206.002 100.709 207.785C111 210.006 123 198.5 118.825 183.239C117.041 174.29 107.059 173.623 102.307 177.521C102.09 177.699 101.868 177.869 101.642 178.034C96.8821 181.488 94.5492 191.54 102.391 192.782" stroke="#FFF2E4" stroke-width="3.45199" stroke-linecap="round"/>
<path d="M176.214 234.671C176.512 216.198 176.291 194.789 190.641 180.895C199.019 172.782 213.957 166.683 225.569 171.365C237.413 176.141 242.35 193.71 240.46 204.514C238.696 214.597 228.766 219.968 220.323 220.3C209.803 220.714 199.966 207.313 206.709 193C210.008 184.492 219.956 185.556 223.965 190.214C224.148 190.427 224.337 190.632 224.532 190.834C228.625 195.056 229.191 205.36 221.252 205.232" stroke="#FFF2E4" stroke-width="3.45199" stroke-linecap="round"/>
<path d="M69.4192 5.38285C60.4118 27.618 49.3859 35.7521 29.579 44.9483C27.9175 45.7197 27.8594 48.0788 29.4833 48.9266C46.8281 57.9819 57.4099 65.7215 69.626 92.641C70.4085 94.3654 72.8887 94.4065 73.6962 92.6937C83.1619 72.6152 91.2335 61.2432 111.226 49.0596C112.76 48.1252 112.633 45.8193 111 45.073C92.4418 36.5928 82.56 27.9788 73.7694 5.40336C73.0215 3.48282 70.1931 3.47262 69.4192 5.38285Z" fill="#FFF2E4"/>
<path d="M70.6756 8.8551C62.4882 30.5629 52.5845 37.5237 33.6371 46.0943C32.9682 46.3969 32.9421 47.3426 33.5957 47.6768C50.0055 56.0661 59.4506 62.3575 70.738 87.9524C71.0431 88.6442 72.0327 88.6653 72.3509 87.9794C81.1546 69.0043 88.0781 58.9132 107.146 47.7258C107.767 47.3616 107.717 46.4372 107.058 46.1474C89.2544 38.3158 80.4313 30.8642 72.3622 8.86094C72.0788 8.08807 70.9661 8.08487 70.6756 8.8551Z" fill="#CC871F"/>
<path d="M74.6727 70.1554C74.6727 77.3762 73.2093 83.2299 71.404 83.2299C69.5988 83.2299 68.1354 77.3762 68.1354 70.1554C68.1354 62.9345 69.5988 57.0808 71.404 57.0808C73.2093 57.0808 74.6727 62.9345 74.6727 70.1554Z" fill="#FFF2E4"/>
<path d="M74.6727 27.4451C74.6727 34.666 73.2093 40.5197 71.404 40.5197C69.5988 40.5197 68.1354 34.666 68.1354 27.4451C68.1354 20.2242 69.5988 14.3705 71.404 14.3705C73.2093 14.3705 74.6727 20.2242 74.6727 27.4451Z" fill="#FFF2E4"/>
<path d="M81.21 40.5197C81.21 41.9639 80.0392 43.1346 78.5951 43.1346C77.1509 43.1346 75.9801 41.9639 75.9801 40.5197C75.9801 39.0755 77.1509 37.9048 78.5951 37.9048C80.0392 37.9048 81.21 39.0755 81.21 40.5197Z" fill="#FFF2E4"/>
<path d="M66.8279 40.9555C66.8279 42.3997 65.6572 43.5704 64.213 43.5704C62.7689 43.5704 61.5981 42.3997 61.5981 40.9555C61.5981 39.5113 62.7689 38.3406 64.213 38.3406C65.6572 38.3406 66.8279 39.5113 66.8279 40.9555Z" fill="#FFF2E4"/>
<path d="M66.8279 54.4659C66.8279 55.9101 65.6572 57.0808 64.213 57.0808C62.7689 57.0808 61.5981 55.9101 61.5981 54.4659C61.5981 53.0217 62.7689 51.851 64.213 51.851C65.6572 51.851 66.8279 53.0217 66.8279 54.4659Z" fill="#FFF2E4"/>
<path d="M81.21 54.4659C81.21 55.9101 80.0392 57.0808 78.5951 57.0808C77.1509 57.0808 75.9801 55.9101 75.9801 54.4659C75.9801 53.0217 77.1509 51.851 78.5951 51.851C80.0392 51.851 81.21 53.0217 81.21 54.4659Z" fill="#FFF2E4"/>
<path d="M74.6727 47.4928C74.6727 48.937 73.2093 50.1077 71.404 50.1077C69.5988 50.1077 68.1354 48.937 68.1354 47.4928C68.1354 46.0486 69.5988 44.8779 71.404 44.8779C73.2093 44.8779 74.6727 46.0486 74.6727 47.4928Z" fill="#FFF2E4"/>
<path d="M91.8875 50.1077C85.9905 50.1077 81.21 48.6443 81.21 46.8391C81.21 45.0338 85.9905 43.5704 91.8875 43.5704C97.7846 43.5704 102.565 45.0338 102.565 46.8391C102.565 48.6443 97.7846 50.1077 91.8875 50.1077Z" fill="#FFF2E4"/>
<path d="M50.9206 50.1077C45.0235 50.1077 40.243 48.6443 40.243 46.8391C40.243 45.0338 45.0235 43.5704 50.9206 43.5704C56.8176 43.5704 61.5981 45.0338 61.5981 46.8391C61.5981 48.6443 56.8176 50.1077 50.9206 50.1077Z" fill="#FFF2E4"/>
<path d="M214.121 403.426C205.113 425.661 194.087 433.796 174.281 442.992C172.619 443.763 172.561 446.122 174.185 446.97C191.53 456.025 202.111 463.765 214.328 490.684C215.11 492.409 217.59 492.45 218.398 490.737C227.863 470.659 235.935 459.287 255.928 447.103C257.461 446.169 257.334 443.863 255.701 443.116C237.143 434.636 227.262 426.022 218.471 403.447C217.723 401.526 214.895 401.516 214.121 403.426Z" fill="#FFF2E4"/>
<path d="M215.377 406.899C207.19 428.606 197.286 435.567 178.339 444.138C177.67 444.44 177.644 445.386 178.297 445.72C194.707 454.11 204.152 460.401 215.44 485.996C215.745 486.688 216.734 486.709 217.052 486.023C225.856 467.048 232.78 456.957 251.847 445.769C252.468 445.405 252.418 444.481 251.76 444.191C233.956 436.359 225.133 428.908 217.064 406.904C216.78 406.132 215.668 406.128 215.377 406.899Z" fill="#CC871F"/>
<path d="M219.374 468.199C219.374 475.42 217.911 481.273 216.106 481.273C214.3 481.273 212.837 475.42 212.837 468.199C212.837 460.978 214.3 455.124 216.106 455.124C217.911 455.124 219.374 460.978 219.374 468.199Z" fill="#FFF2E4"/>
<path d="M219.374 425.489C219.374 432.709 217.911 438.563 216.106 438.563C214.3 438.563 212.837 432.709 212.837 425.489C212.837 418.268 214.3 412.414 216.106 412.414C217.911 412.414 219.374 418.268 219.374 425.489Z" fill="#FFF2E4"/>
<path d="M225.912 438.563C225.912 440.007 224.741 441.178 223.297 441.178C221.852 441.178 220.682 440.007 220.682 438.563C220.682 437.119 221.852 435.948 223.297 435.948C224.741 435.948 225.912 437.119 225.912 438.563Z" fill="#FFF2E4"/>
<path d="M211.529 438.999C211.529 440.443 210.359 441.614 208.915 441.614C207.47 441.614 206.3 440.443 206.3 438.999C206.3 437.555 207.47 436.384 208.915 436.384C210.359 436.384 211.529 437.555 211.529 438.999Z" fill="#FFF2E4"/>
<path d="M211.529 452.509C211.529 453.954 210.359 455.124 208.915 455.124C207.47 455.124 206.3 453.954 206.3 452.509C206.3 451.065 207.47 449.894 208.915 449.894C210.359 449.894 211.529 451.065 211.529 452.509Z" fill="#FFF2E4"/>
<path d="M225.912 452.509C225.912 453.954 224.741 455.124 223.297 455.124C221.852 455.124 220.682 453.954 220.682 452.509C220.682 451.065 221.852 449.894 223.297 449.894C224.741 449.894 225.912 451.065 225.912 452.509Z" fill="#FFF2E4"/>
<path d="M219.374 445.536C219.374 446.98 217.911 448.151 216.106 448.151C214.3 448.151 212.837 446.98 212.837 445.536C212.837 444.092 214.3 442.921 216.106 442.921C217.911 442.921 219.374 444.092 219.374 445.536Z" fill="#FFF2E4"/>
<path d="M236.589 448.151C230.692 448.151 225.912 446.688 225.912 444.883C225.912 443.077 230.692 441.614 236.589 441.614C242.486 441.614 247.267 443.077 247.267 444.883C247.267 446.688 242.486 448.151 236.589 448.151Z" fill="#FFF2E4"/>
<path d="M195.622 448.151C189.725 448.151 184.945 446.688 184.945 444.883C184.945 443.077 189.725 441.614 195.622 441.614C201.519 441.614 206.3 443.077 206.3 444.883C206.3 446.688 201.519 448.151 195.622 448.151Z" fill="#FFF2E4"/>
<path d="M217.052 302.769C217.84 294.769 234.866 297.116 230.953 306.66C220.284 332.687 168.229 311.348 249.905 238.947C256.038 233.733 263.354 218.534 246.045 211.271" stroke="white" stroke-width="3"/>
<path d="M74.4466 283.628C76.1971 275.782 59.2904 272.693 60.0253 282.981C62.0295 311.038 118.145 307.031 63.1773 212.737C58.9798 205.867 56.7783 189.143 75.4904 187.652" stroke="white" stroke-width="3"/>
<path d="M213 118.116C215 137.616 241 118.116 217 109.116C203 105.616 181 109.116 181 137.616" stroke="white" stroke-width="3"/>
<path d="M134.568 109.62C128.888 128.381 107.081 104.283 132.357 100.022C146.767 99.2548 167.696 106.884 162.265 134.861" stroke="white" stroke-width="3"/>
<path d="M164.5 62.5C164.5 72.5 150 60.5 162.299 55.8419C171 53.5 177.795 59.0297 174.5 76" stroke="white" stroke-width="3"/>
<path d="M200.675 64.7845C199.156 74.6685 215.31 65.0097 203.862 58.538C195.617 54.9018 188.061 59.3355 188.741 76.6093" stroke="white" stroke-width="3"/>
</svg>
