<svg width="1344" height="511" viewBox="0 0 1344 511" fill="none" xmlns="http://www.w3.org/2000/svg">
<path d="M868.848 420.849V441.212C873.374 441.212 883.782 439.402 889.212 432.162C894.642 424.921 891.475 421.603 889.212 420.849H868.848Z" fill="#175676" fill-opacity="0.13"/>
<path d="M905.05 420.849V432.162H929.939L945.778 414.061L929.939 407.273L920.889 414.061L905.05 420.849Z" fill="#175676" fill-opacity="0.13"/>
<path d="M1061.17 398.222L1052.12 432.162L1061.17 441.212L1074.75 432.162V420.849C1077.76 418.586 1084.7 412.703 1088.32 407.273C1091.94 401.843 1086.81 392.943 1083.8 389.172L1061.17 398.222Z" fill="#175676" fill-opacity="0.13"/>
<path d="M1140.36 407.273L1147.15 357.495C1148.88 344.824 1161.45 349.199 1167.51 352.97V373.333L1160.73 382.384L1153.94 398.222L1140.36 407.273Z" fill="#175676" fill-opacity="0.13"/>
<path d="M1117.74 341.657L1108.69 352.97H1099.64V373.333H1108.69L1117.74 366.546V357.495L1129.05 352.97V341.657H1117.74Z" fill="#175676" fill-opacity="0.13"/>
<path d="M916.363 287.354C925.414 274.683 939.744 282.074 945.778 287.354C948.04 287.354 955.281 285.544 966.141 278.304C977.002 271.064 997.818 275.287 1006.87 278.304C1011.39 279.058 1022.71 280.114 1031.76 278.304C1040.81 276.494 1044.58 283.583 1045.33 287.354L1056.65 291.88V309.981H1074.75V323.556H1061.17L1052.12 314.506H1045.33L1031.76 300.93H997.818L991.03 309.981H975.192L966.141 300.93H952.565L945.778 314.506H929.939C921.643 310.735 907.313 300.024 916.363 287.354Z" fill="#175676" fill-opacity="0.13"/>
<path d="M868.848 242.101H889.212H905.05H929.939V260.202L916.363 269.253H905.05L896 260.202H868.848V242.101Z" fill="#175676" fill-opacity="0.13"/>
<path d="M1006.87 248.889L1024.97 260.202H1038.55V248.889H1024.97H1006.87Z" fill="#175676" fill-opacity="0.13"/>
<path d="M966.141 260.202C955.281 260.202 952.565 243.61 952.565 235.313V226.263C954.074 224 956.186 214.95 952.565 196.849C948.04 174.223 961.616 162.909 957.091 156.122C953.471 150.691 967.65 135.758 975.192 128.97H997.818C997.818 133.495 995.555 142.998 986.505 144.808C977.454 146.618 982.734 153.105 986.505 156.122H997.818L1006.87 176.485C1006.87 183.273 1005.06 198.206 997.818 203.637C990.578 209.067 979.717 201.374 975.192 196.849V212.687C978.963 213.441 987.41 215.855 991.03 219.475C994.65 223.095 992.539 231.542 991.03 235.313H986.505C984.242 243.61 977.002 260.202 966.141 260.202Z" fill="#175676" fill-opacity="0.13"/>
<path d="M1196.93 255.677L1210.5 269.253L1228.61 248.889C1220.31 246.627 1205.98 242.101 1215.03 242.101C1224.08 242.101 1221.82 231.542 1219.56 226.263L1196.93 219.475L1185.62 212.687L1167.51 219.475V255.677H1196.93Z" fill="#175676" fill-opacity="0.13"/>
<path d="M56.5655 117.657L97.2928 140.283H106.343L97.2928 149.334H79.1918L56.5655 131.233V117.657Z" fill="#175676" fill-opacity="0.13"/>
<path d="M97.2928 160.647H115.394L126.707 176.485V185.536L115.394 196.849L97.2928 176.485V160.647Z" fill="#175676" fill-opacity="0.13"/>
<path d="M133.495 196.849H142.545H151.596V221.738H162.909L167.434 230.788L187.798 255.677L201.374 280.566V291.879L187.798 287.354L162.909 260.202L138.02 242.101L142.545 226.263L133.495 212.687V196.849Z" fill="#175676" fill-opacity="0.13"/>
<path d="M762.505 425.375C753.455 419.944 746.667 435.179 744.404 443.476C741.669 450.716 750.807 454.034 755.717 454.788H780.606H810.02C819.071 452.526 839.435 447.095 848.485 443.476C857.536 439.856 852.256 432.916 848.485 429.899H832.647L791.919 434.425C785.886 433.671 771.556 430.805 762.505 425.375Z" fill="#175676" fill-opacity="0.13"/>
<path d="M814.545 509.091C803.684 505.471 822.087 500.041 832.646 497.778L839.434 488.728L855.273 466.101C862.815 460.822 880.161 450.263 889.212 450.263C898.262 450.263 892.983 466.856 889.212 475.152L848.485 502.303C841.697 506.074 825.406 512.711 814.545 509.091Z" fill="#175676" fill-opacity="0.13"/>
<path d="M744.404 454.788C733.543 449.357 718.761 466.101 712.727 475.151L728.566 484.202C736.108 486.465 753.907 491.895 764.768 495.515C775.628 499.135 773.818 483.448 771.556 475.151C767.03 470.626 755.265 460.218 744.404 454.788Z" fill="#175676" fill-opacity="0.13"/>
<path d="M1043.07 199.111L1072.48 212.687L1083.8 214.949L1101.9 212.687H1131.31C1143.98 212.687 1153.19 230.788 1156.2 239.838V260.202C1159.22 270.761 1170.23 289.616 1190.14 280.566C1215.03 269.253 1228.61 239.838 1251.23 235.313C1269.33 231.693 1288.94 256.431 1296.48 269.253H1344V461.576L1325.9 454.788C1321.37 451.017 1312.32 441.212 1312.32 432.162C1312.32 423.111 1301.76 422.357 1296.48 423.111C1292.71 426.128 1285.17 434.424 1285.17 443.475C1285.17 452.525 1273.1 454.788 1267.07 454.788L1258.02 443.475L1239.92 438.949C1236.15 432.916 1232.68 419.943 1248.97 416.323C1269.33 411.798 1267.07 395.96 1255.76 371.071C1244.44 346.182 1228.61 366.545 1228.61 355.232C1228.61 346.182 1210.51 334.869 1201.45 330.343L1165.25 319.03C1153.94 312.242 1131.31 300.477 1131.31 307.717C1131.31 314.958 1120.75 318.276 1115.47 319.03H1101.9V298.667C1101.9 291.426 1092.85 283.582 1088.32 280.566L1131.31 269.253C1116.98 270.007 1088.32 269.253 1088.32 260.202C1088.32 251.151 1058.15 242.855 1043.07 239.838L1004.61 230.788L1043.07 212.687V199.111Z" fill="#175676" fill-opacity="0.13"/>
<path d="M871.111 147.071L862.061 171.959H846.222H830.384L807.758 167.434C800.216 165.926 781.059 162.909 764.768 162.909C748.477 162.909 741.387 179.501 739.879 187.798C740.633 199.865 740.332 223.547 733.091 221.737C725.851 219.927 719.515 228.525 717.253 233.05L719.515 251.151C718.761 257.939 715.895 272.42 710.465 276.04C705.035 279.66 708.202 295.65 710.465 303.192C718.761 303.946 736.259 306.359 739.879 309.98C744.404 314.505 735.354 325.818 728.566 332.606C723.136 338.036 726.303 354.478 728.566 362.02H755.717L764.768 389.171L769.293 375.596L767.03 355.232L769.293 348.444L767.03 316.767C764.768 307.717 760.242 289.163 760.242 287.353C760.242 285.543 767.785 279.057 771.556 276.04C772.31 277.549 772.913 281.923 769.293 287.353C764.768 294.141 778.343 309.98 785.132 309.98C790.562 309.98 793.428 325.064 794.182 332.606V355.232L810.02 352.969L814.546 366.545L830.384 362.02L843.96 357.495L853.01 348.444C849.993 348.444 844.412 346.634 846.222 339.394C848.033 332.153 845.468 316.767 843.96 309.98H819.071C819.071 305.454 819.523 295.046 821.334 289.616C823.144 284.186 814.546 278.303 810.02 276.04C805.495 276.04 796.445 274.23 796.445 266.99C796.445 257.939 803.233 251.151 810.02 246.626C816.808 242.101 825.859 246.626 830.384 255.676C834.004 262.917 842.451 260.202 846.222 257.939L843.96 217.212H825.859L821.334 208.161L810.02 203.636L796.445 205.899L785.132 217.212L778.343 230.788H767.03C766.276 229.279 762.958 225.357 755.717 221.737C748.477 218.117 755.717 205.145 760.242 199.111L778.343 192.323H807.758L819.071 187.798L834.909 194.586L862.061 199.111C874.882 199.865 901.43 193.681 905.05 162.909C908.671 132.137 883.933 139.528 871.111 147.071Z" fill="#175676" fill-opacity="0.13"/>
<path d="M432.162 178.747L457.051 144.808H466.101V153.859L477.414 171.96H495.515H520.404L533.98 158.384L549.818 149.333L581.495 153.859L597.334 142.545L610.909 115.394L629.01 67.8788H642.586H692.364C701.414 67.8788 699.152 81.4545 696.889 88.2424L687.839 101.818V108.606V128.97L701.414 153.859C705.94 155.367 716.8 160.194 724.041 167.434C731.281 174.675 721.024 182.519 714.99 185.535H694.627C689.196 185.535 683.313 194.586 681.051 199.111L687.839 226.263L653.899 246.626V269.253L651.637 273.778V305.455V314.505L644.849 323.556H631.273V309.98H619.96L610.909 323.556H592.808V298.667L549.818 294.141L540.768 305.455H520.404L513.616 294.141L470.627 289.616V255.677L461.576 253.414V242.101L448 246.626L432.162 178.747Z" fill="#175676" fill-opacity="0.13"/>
<path d="M27.1515 6.78788L0 0V18.101V36.202C3.01683 39.2189 10.4081 44.8 15.8384 42.9899C21.2687 41.1798 43.7441 58.8283 54.303 67.8788L58.8283 88.2424L74.6667 97.2929L92.7677 106.343V122.182H104.081L113.131 138.02V158.384L133.495 167.434L149.333 176.485V194.586V212.687L167.434 217.212C171.205 220.229 178.747 228.525 178.747 237.576C178.747 246.626 208.916 276.04 224 289.616L237.576 298.667L248.889 325.818H262.465H285.091H309.98L316.768 316.768L309.98 298.667V273.778V253.414L316.768 248.889H330.343L334.869 237.576V226.263L323.556 217.212V203.636L312.242 194.586H298.667L294.141 203.636H280.566L271.515 194.586L248.889 183.273V158.384L262.465 176.485L285.091 169.697L280.566 126.707L262.465 122.182L248.889 115.394H224L210.424 106.343H190.061L178.747 88.2424L151.596 81.4545L138.02 65.6162V52.0404H113.131L99.5555 29.4141H83.7172L74.6667 6.78788H27.1515Z" fill="#175676" fill-opacity="0.13"/>
<path d="M334.869 386.91L348.445 380.122V371.071L362.02 364.283H382.384H400.485L425.374 371.071L445.738 386.91H470.626L486.465 380.122C488.727 377.859 495.515 372.882 504.566 371.071C513.616 369.261 512.862 380.876 511.354 386.91C515.125 384.647 525.835 381.48 538.505 386.91C551.176 392.34 554.344 405.765 554.344 411.799H579.233L597.334 420.849H642.586L653.899 432.162H667.475C670.492 428.391 679.241 420.849 690.101 420.849C700.962 420.849 717.253 428.391 724.041 432.162V448.001L676.525 454.789L667.475 463.839L658.424 454.789H642.586L633.536 463.839L624.485 448.001H583.758L545.293 441.213L486.465 432.162L445.738 420.849H400.485V414.061H362.02V400.486L334.869 395.96V386.91Z" fill="#175676" fill-opacity="0.13"/>
<path d="M892.74 100.856V126.233C895.994 127.751 903.412 129.877 907.055 126.233C911.61 121.678 907.055 115.171 907.055 100.856C907.055 89.4042 897.512 96.0846 892.74 100.856Z" fill="#175676" fill-opacity="0.13"/>
<path d="M973.425 100.856C966.138 116.993 955.206 101.941 950.651 92.3973C940.24 92.3973 938.071 81.9864 938.288 76.7809C944.795 77.2147 958.98 75.8699 963.665 67.0206C968.35 58.1713 981.234 63.3334 987.09 67.0206C985.571 71.5754 980.713 84.7193 973.425 100.856Z" fill="#175676" fill-opacity="0.13"/>
<path d="M446.37 100.856C434.918 100.856 441.599 117.774 446.37 126.233L463.939 130.137L467.843 113.87C465.457 109.532 457.822 100.856 446.37 100.856Z" fill="#175676" fill-opacity="0.13"/>
<path d="M435.959 67.0206C427.63 51.4041 420.777 60.5137 418.391 67.0206V76.7809L429.452 92.3973C435.092 90.4453 444.288 82.6371 435.959 67.0206Z" fill="#175676" fill-opacity="0.13"/>
<path d="M402.124 85.24C396.918 79.5141 386.941 87.6258 382.603 92.3973V100.856L402.124 113.87C404.293 106.712 407.329 90.9659 402.124 85.24Z" fill="#175676" fill-opacity="0.13"/>
</svg>
