<svg width="353" height="117" viewBox="0 0 353 117" fill="none" xmlns="http://www.w3.org/2000/svg">
<path d="M70.2297 105.885L70.7055 52.1227C75.0932 52.0522 79.4809 51.5941 83.8686 50.7835C88.2563 49.9729 92.6617 50.2372 97.067 51.5588C100.433 52.5809 102.988 54.343 104.732 56.8452C106.477 59.3475 107.411 62.0788 107.516 65.0391C107.622 67.9995 106.9 70.9071 105.384 73.7793C103.851 76.6692 101.508 78.9953 98.3357 80.7574L96.8203 81.6032L116.644 100.176L103.005 107.119L88.0625 89.991L89.6837 106.132L70.2297 105.885ZM84.2034 72.8983C87.2343 72.2287 89.7013 71.2242 91.6396 69.9026C93.5604 68.581 94.6529 67.2771 94.9348 65.9907C95.1991 64.7043 94.4943 63.5942 92.8203 62.6603C91.1286 61.744 88.2035 61.321 84.0096 61.3915L84.2034 72.8983ZM145.332 90.5549C144.257 97.0924 140.944 101.216 135.411 102.907C129.86 104.617 124.204 106.203 118.442 107.648L111.904 94.2553C111.798 94.0791 112.503 93.8501 114.001 93.5505C115.481 93.2509 117.155 92.828 119.023 92.2994C120.891 91.7707 122.636 91.0835 124.274 90.2729C125.896 89.4623 126.812 88.4403 127.023 87.2068C127.288 85.5152 126.6 83.4711 124.962 81.0746C122.089 77.1098 120.539 74.8719 120.292 74.3785C118.706 71.3828 118.177 68.2286 118.741 64.9158C119.499 60.1228 122.636 56.4399 128.133 53.8672C132.592 51.7703 137.843 50.713 143.887 50.713L149.173 62.9598C147.799 63.136 146.248 63.2418 144.521 63.2594C142.794 63.277 141.332 63.5061 140.151 63.9642C138.072 64.7396 136.891 66.0083 136.609 67.7705C136.345 69.4092 137.085 71.5238 138.83 74.1141C142.019 79.0834 143.605 81.5327 143.605 81.4975C145.191 84.687 145.772 87.7002 145.332 90.5549ZM149.737 106.907L149.614 54.8011L179.535 50.6601L179.042 61.8321L161.914 64.7396L161.755 74.5899L178.354 75.6472V83.2068L163.429 84.9513L164.874 95.1717L183.412 93.2157L184.909 104.405L149.737 106.907ZM183.218 105.498L185.702 51.6822L199.306 51.0654L216.645 75.8058L218.126 52.3165L230.866 51.6822L232.716 105.498L220.187 107.577L200.54 77.656L198.777 106.626L183.218 105.498ZM245.703 77.938L245.738 79.8235L245.826 81.5151L246.108 84.4403L246.514 86.4843L246.866 87.6473L247.536 89.1099L248.047 89.8853L248.382 90.2905L249.175 91.0306L249.809 91.4536L250.214 91.665L250.778 91.8941L251.025 91.9822L251.36 92.0703L251.73 92.1584L252.029 92.2289L252.945 92.3522L253.615 92.3699H254.373L255.36 92.3346L256.434 92.1936L257.051 92.0351L257.968 91.6826L258.373 91.4536L258.602 91.3126L259.324 90.7135L259.571 90.4491L259.924 89.9734L260.294 89.3214L260.558 88.7399L260.716 88.2465L260.875 87.6297L261.016 86.9601L261.087 86.5196L261.157 85.7971L261.245 83.7883L261.457 52.9509L271.043 50.7482L274.637 105.163L265.104 108.176L264.188 102.678C255.236 107.577 248.575 108.74 244.223 106.167C239.853 103.595 236.804 99.2246 235.077 93.0571C233.333 86.8896 232.417 79.8939 232.311 72.0524C232.205 64.2286 231.941 57.4796 231.518 51.8408L243.359 50.3958L245.703 77.938ZM306.602 90.5549C305.528 97.0924 302.215 101.216 296.682 102.907C291.131 104.617 285.474 106.203 279.712 107.648L273.175 94.2553C273.069 94.0791 273.774 93.8501 275.272 93.5505C276.752 93.2509 278.426 92.828 280.294 92.2994C282.162 91.7707 283.906 91.0835 285.545 90.2729C287.166 89.4623 288.082 88.4403 288.294 87.2068C288.558 85.5152 287.871 83.4711 286.232 81.0746C283.36 77.1098 281.809 74.8719 281.563 74.3785C279.977 71.3828 279.448 68.2286 280.012 64.9158C280.77 60.1228 283.906 56.4399 289.404 53.8672C293.862 51.7703 299.113 50.713 305.158 50.713L310.444 62.9598C309.069 63.136 307.519 63.2418 305.792 63.2594C304.065 63.277 302.602 63.5061 301.422 63.9642C299.342 64.7396 298.162 66.0083 297.88 67.7705C297.616 69.4092 298.356 71.5238 300.1 74.1141C303.29 79.0834 304.876 81.5327 304.876 81.4975C306.462 84.687 307.043 87.7002 306.602 90.5549ZM306.479 104.44L326.691 51.0478L336.171 53.8672L352.665 105.445L337.581 107.119L335.131 94.1672L323.942 93.6034L319.554 107.119L306.479 104.44ZM327.343 83.4711L333.845 83.7354L330.938 71.5238L327.343 83.4711Z" fill="#175676"/>
<path d="M0.0202001 105.957L28.6534 30.3177L42.0838 34.3119L65.4497 107.38L44.0809 109.752L40.611 91.4036L24.7591 90.6048L18.5432 109.752L0.0202001 105.957ZM29.5771 76.2507L38.7886 76.6252L34.6696 59.3254L29.5771 76.2507Z" fill="#175676"/>
<path d="M41.8314 22.5395C40.5183 25.3063 41.4661 27.148 42.1042 27.723L51.7452 25.7665C52.8764 20.696 47.8708 5.12251 38.9542 2.72599C29.802 -0.254559 26.889 8.47089 32.8004 12.5787C35.136 13.7141 38.8374 12.4411 39.5103 14.4069L41.8314 22.5395Z" fill="#5F3E1D"/>
<path d="M49.4291 23.971L42.5138 25.9736C41.3456 25.2991 41.9601 24.1496 42.6064 22.9407L42.6311 22.8944C42.7415 22.3553 42.2871 17.2552 40.2754 13.7993C39.3657 12.2365 37.3681 12.232 35.5607 12.1729C30.8156 12.0177 29.5152 5.29941 33.4636 3.39233C40.805 -0.15357 49.9038 17.3423 49.4291 23.971Z" fill="#77431A"/>
<path d="M44.0508 25.4545L42.7927 25.802C43.0791 23.3562 43.2526 18.4427 41.8839 16.9329C41.7521 16.81 41.6265 16.7095 41.511 16.631C41.6464 16.706 41.7705 16.8078 41.8839 16.9329C43.0292 18.0011 44.6372 20.761 44.0508 25.4545Z" fill="#AD5527" fill-opacity="0.7"/>
<path d="M32.1441 4.64835C29.9077 7.02833 31.8084 13.6726 37.8127 11.6706C35.0367 11.7049 31.8049 8.85994 32.1441 4.64835Z" fill="#AD5527" fill-opacity="0.7"/>
<g filter="url(#filter0_i_160_40)">
<rect x="47.3303" y="51.5721" width="10.37" height="62.0037" rx="5.18498" transform="rotate(-12.1112 47.3303 51.5721)" fill="#F7B03E"/>
<path d="M51.0589 56.2679C50.5657 54.0496 52.105 51.9239 54.3629 51.6664V51.6664C54.6223 51.6368 54.8705 51.6628 54.9926 51.8936C56.7927 55.2959 62.9714 89.763 66.5952 106.813C66.8081 107.815 66.1712 108.798 65.1698 109.013V109.013C64.2841 109.203 63.4102 108.729 63.1582 107.859C60.8467 99.8782 53.6488 67.917 51.0589 56.2679Z" fill="#B05125"/>
</g>
<path d="M59.7095 27.0169L36.4751 32.1641L40.461 41.3623L59.1106 37.2312L59.7095 27.0169Z" fill="#AF711C"/>
<path d="M59.8431 23.9914L34.9593 29.168L39.2889 38.6931L59.2625 34.5384L59.8431 23.9914Z" fill="#F8AB41"/>
<path d="M69.5954 31.6824C63.0331 37.1419 43.5813 41.4256 25.8111 42.9732C26.62 44.9987 26.8269 47.0517 25.8228 51.8077C24.3864 63.3174 66.3282 53.9561 70.5699 49.5524C80.4885 41.2686 72.5337 30.3154 69.5954 31.6824Z" fill="#7D3A1D"/>
<path d="M27.989 46.2538C28.4211 49.4363 24.763 54.736 33.964 56.1266C25.7095 53.3903 31.4768 46.9901 27.989 46.2538Z" fill="#AA4F27"/>
<path d="M70.47 37.9998C66.786 39.7612 43.1829 45.9286 29.6591 44.6191C39.5459 43.284 63.1372 40.3106 70.6227 33.6159C75.8438 38.6927 72.7544 44.9589 70.1751 47.7632C71.4012 44.0476 71.9602 39.308 70.47 37.9998Z" fill="#AC5024"/>
<defs>
<filter id="filter0_i_160_40" x="48.3018" y="50.3678" width="25.2053" height="64.8566" filterUnits="userSpaceOnUse" color-interpolation-filters="sRGB">
<feFlood flood-opacity="0" result="BackgroundImageFix"/>
<feBlend mode="normal" in="SourceGraphic" in2="BackgroundImageFix" result="shape"/>
<feColorMatrix in="SourceAlpha" type="matrix" values="0 0 0 0 0 0 0 0 0 0 0 0 0 0 0 0 0 0 127 0" result="hardAlpha"/>
<feOffset dx="4" dy="4"/>
<feGaussianBlur stdDeviation="2"/>
<feComposite in2="hardAlpha" operator="arithmetic" k2="-1" k3="1"/>
<feColorMatrix type="matrix" values="0 0 0 0 0 0 0 0 0 0 0 0 0 0 0 0 0 0 0.45 0"/>
<feBlend mode="normal" in2="shape" result="effect1_innerShadow_160_40"/>
</filter>
</defs>
</svg>
