<svg width="396" height="412" viewBox="0 0 396 412" fill="none" xmlns="http://www.w3.org/2000/svg">
<path d="M337.045 263.227H247.309H177.763V276.688L257.03 278.931V361.19H264.508V278.931H334.054L337.045 263.227Z" fill="#182023"/>
<path d="M194.942 259.196C200.454 259.196 210.622 254.503 216.466 250.903C217.633 250.184 218.298 248.894 218.298 247.523H259.737L253.165 273.615C252.6 275.856 250.58 277.419 248.269 277.385C225.37 277.043 190.561 275.798 186.578 275.247C181.304 274.517 184.318 270.87 184.318 268.681C184.318 267.015 185.749 262.115 186.578 259.196C189.341 258.953 187.228 259.196 194.942 259.196Z" fill="#AE6C22"/>
<path d="M275.705 259.944C281.211 259.944 291.364 255.26 297.21 251.662C298.409 250.924 299.167 249.665 299.355 248.269L299.655 246.028L335.55 245.28L333.331 273.525C333.125 276.147 330.926 278.162 328.296 278.121C305.395 277.764 271.282 276.54 267.341 275.995C262.067 275.265 265.081 271.617 265.081 269.429C265.081 267.763 266.512 262.863 267.341 259.944C270.104 259.701 267.991 259.944 275.705 259.944Z" fill="#AE6C22"/>
<path d="M126.912 187.699L117.938 179.473L184.493 357.451H191.971L126.912 187.699Z" fill="#131D1F"/>
<path d="M192.719 226.27V231.072C192.719 232.311 193.723 233.315 194.962 233.315C195.448 233.315 195.925 233.468 196.295 233.781C198.926 236.012 200.376 239.119 198.701 240.793C197.73 241.765 197.591 243.218 197.787 244.584C198.055 246.459 199.898 247.523 201.792 247.523H225.622H271.239L328.82 246.776L342.015 245.576C343.993 245.396 345.677 244.062 346.305 242.178L347.272 239.278C347.432 238.799 347.701 238.364 348.058 238.007C348.668 237.397 349.01 236.57 349.01 235.707V232.698C349.01 231.641 349.345 230.611 349.967 229.757L354.993 222.846L363.966 213.124C367.705 208.638 375.183 198.916 375.183 195.925C375.183 192.186 376.679 186.203 375.183 171.247C373.987 159.282 369.201 148.813 366.958 145.074L359.732 130.624C359.564 130.288 359.36 129.972 359.119 129.683C355.397 125.212 346.642 115.376 338.541 108.432C330.166 101.253 319.597 98.9595 315.359 98.7102H304.89H290.757C289.286 98.7102 287.89 99.3577 286.94 100.48L281.101 107.381C280.519 108.069 280.134 108.901 279.986 109.789L278.1 121.103C278.013 121.626 277.843 122.131 277.597 122.601L269.743 137.596C268.497 139.59 264.658 144.326 259.274 147.318C252.543 151.057 247.309 160.03 245.813 162.274C244.689 163.96 241.278 179.854 239.422 189.007C239.201 190.099 238.625 191.085 237.782 191.812L218.804 208.172C217.896 208.955 216.737 209.385 215.539 209.385H212.712C210.976 209.385 209.364 210.286 208.454 211.765L205.4 216.727C204.49 218.206 202.878 219.107 201.142 219.107H198.8C196.907 219.107 195.175 220.177 194.328 221.871L193.247 224.034C192.9 224.728 192.719 225.493 192.719 226.27Z" fill="#D1BD98"/>
<path d="M373.547 169.351L374.722 170.282L372.859 172.633L371.683 171.702L373.547 169.351ZM292.378 105.012L373.547 169.351L371.683 171.702L290.515 107.363L292.378 105.012Z" fill="#3F2212"/>
<path d="M364.233 142.403C364.869 142.933 364.956 143.878 364.426 144.515C363.896 145.152 362.95 145.238 362.313 144.708L364.233 142.403ZM310.354 97.5571L364.233 142.403L362.313 144.708L308.434 99.8628L310.354 97.5571Z" fill="#3F2212"/>
<path d="M360.405 133.915L292.027 225.796" stroke="#3F2212" stroke-width="2" stroke-linecap="round"/>
<path d="M371.86 156.645L319.371 230.261" stroke="#3F2212" stroke-width="2" stroke-linecap="round"/>
<path d="M374.574 177.539L336.65 234.415" stroke="#3F2212" stroke-width="2" stroke-linecap="round"/>
<path d="M203.188 246.029C266.004 226.585 309.377 236.306 340.784 243.786" stroke="#3F2212"/>
<path d="M200.197 239.298C266.427 218.896 312.157 229.096 345.271 236.944" stroke="#3F2212"/>
<path d="M221.756 230.633C222.426 231.12 222.574 232.058 222.087 232.728C221.599 233.398 220.661 233.546 219.991 233.059L221.756 230.633ZM207.151 220.012L221.756 230.633L219.991 233.059L205.386 222.438L207.151 220.012Z" fill="#3F2212"/>
<path d="M262.012 223.903C262.684 224.387 262.836 225.325 262.351 225.997C261.867 226.669 260.929 226.82 260.257 226.336L262.012 223.903ZM233.978 203.682L262.012 223.903L260.257 226.336L232.223 206.115L233.978 203.682Z" fill="#3F2212"/>
<path d="M297.491 227.292C298.17 227.768 299.105 227.603 299.58 226.924C300.055 226.246 299.89 225.31 299.212 224.835L297.491 227.292ZM248.692 193.119L297.491 227.292L299.212 224.835L250.413 190.662L248.692 193.119Z" fill="#3F2212"/>
<path d="M327.324 103.197L228.614 230.324" stroke="#3F2212" stroke-width="2" stroke-linecap="round"/>
<path d="M347.54 234.014C348.19 234.527 348.3 235.471 347.787 236.121C347.273 236.771 346.329 236.881 345.68 236.367L347.54 234.014ZM257.115 162.531L347.54 234.014L345.68 236.367L255.254 164.885L257.115 162.531Z" fill="#3F2212"/>
<path d="M361.15 212.689L362.333 213.612L360.488 215.978L359.305 215.055L361.15 212.689ZM272.909 143.891L361.15 212.689L359.305 215.055L271.064 146.257L272.909 143.891Z" fill="#3F2212"/>
<path d="M373.095 195.525L374.275 196.451L372.423 198.811L371.243 197.886L373.095 195.525ZM284.96 126.372L373.095 195.525L371.243 197.886L283.108 128.732L284.96 126.372Z" fill="#3F2212"/>
<path d="M240.651 230.349C240.881 230.502 241.191 230.44 241.344 230.21C241.497 229.98 241.435 229.669 241.205 229.516L240.651 230.349ZM218.118 215.347L240.651 230.349L241.205 229.516L218.672 214.515L218.118 215.347Z" fill="#3F2212"/>
<path d="M252.25 80.2603L251.048 62.8305C250.549 60.0885 249.552 53.8566 249.552 50.8654C249.552 47.1264 245.065 45.3247 242.074 46.8204C240.561 47.5771 237.089 51.1147 234.596 54.6044C233.848 47.8742 232.353 33.5163 232.353 29.9269C232.353 25.44 217.397 13.9169 212.162 13.4754C209.181 13.224 191.223 16.1605 190.476 21.7013V30.9096C190.476 33.671 188.237 35.9096 185.476 35.9096H179.841C178.974 35.9096 178.125 36.1664 177.403 36.6476C176.663 37.1408 176.09 37.847 175.76 38.6727L175.222 40.0194C174.926 40.7586 174.811 41.5577 174.886 42.3502L176.075 54.832C176.198 56.1251 175.813 57.4153 175.002 58.4295L173.276 60.5871L171.78 67.7589V68.813L170.866 77.4979C170.555 80.4501 172.869 82.9305 175.823 82.6398C180.726 82.1573 186.446 81.4482 187.484 81.9672C189.599 83.0248 192.879 83.4985 199.449 84.9585C206.179 86.4541 217.397 90.4993 224.127 91.2471C226.619 89.0037 231.754 84.9656 232.353 86.7603C232.84 88.2221 241.629 86.8065 248.375 85.4229C250.782 84.929 252.419 82.7123 252.25 80.2603Z" fill="#F8A94C"/>
<path d="M188.082 259.488C188.082 259.747 187.96 260.007 187.714 260.256C187.467 260.506 187.102 260.739 186.64 260.937C185.715 261.333 184.428 261.582 182.998 261.582C181.567 261.582 180.28 261.333 179.355 260.937C178.893 260.739 178.528 260.506 178.281 260.256C178.035 260.007 177.913 259.747 177.913 259.488C177.913 259.229 178.035 258.97 178.281 258.721C178.528 258.47 178.893 258.238 179.355 258.04C180.28 257.644 181.567 257.395 182.998 257.395C184.428 257.395 185.715 257.644 186.64 258.04C187.102 258.238 187.467 258.47 187.714 258.721C187.96 258.97 188.082 259.229 188.082 259.488Z" fill="#AE6C22" stroke="black" stroke-width="0.3"/>
<path d="M268.845 260.236C268.845 260.495 268.723 260.755 268.477 261.004C268.23 261.254 267.865 261.486 267.403 261.685C266.478 262.081 265.191 262.33 263.761 262.33C262.33 262.33 261.043 262.081 260.118 261.685C259.656 261.486 259.291 261.254 259.044 261.004C258.798 260.755 258.676 260.495 258.676 260.236C258.676 259.977 258.798 259.718 259.044 259.468C259.291 259.218 259.656 258.986 260.118 258.788C261.043 258.392 262.33 258.143 263.761 258.143C265.191 258.143 266.478 258.392 267.403 258.788C267.865 258.986 268.23 259.218 268.477 259.468C268.723 259.718 268.845 259.977 268.845 260.236Z" fill="#AE6C22" stroke="black" stroke-width="0.3"/>
<path d="M186.587 262.48C186.587 262.739 186.465 262.998 186.219 263.247C185.972 263.498 185.607 263.73 185.144 263.928C184.22 264.324 182.932 264.573 181.502 264.573C180.072 264.573 178.784 264.324 177.86 263.928C177.397 263.73 177.032 263.498 176.786 263.247C176.539 262.998 176.417 262.739 176.417 262.48C176.417 262.221 176.539 261.961 176.786 261.712C177.032 261.462 177.397 261.229 177.86 261.031C178.784 260.635 180.072 260.386 181.502 260.386C182.932 260.386 184.22 260.635 185.144 261.031C185.607 261.229 185.972 261.462 186.219 261.712C186.465 261.961 186.587 262.221 186.587 262.48Z" fill="#AE6C22" stroke="black" stroke-width="0.3"/>
<path d="M267.35 263.227C267.35 263.486 267.228 263.746 266.981 263.995C266.735 264.245 266.37 264.478 265.907 264.676C264.983 265.072 263.695 265.321 262.265 265.321C260.835 265.321 259.547 265.072 258.623 264.676C258.16 264.478 257.795 264.245 257.548 263.995C257.302 263.746 257.18 263.486 257.18 263.227C257.18 262.968 257.302 262.709 257.548 262.459C257.795 262.209 258.16 261.977 258.623 261.779C259.547 261.383 260.835 261.134 262.265 261.134C263.695 261.134 264.983 261.383 265.907 261.779C266.37 261.977 266.735 262.209 266.981 262.459C267.228 262.709 267.35 262.968 267.35 263.227Z" fill="#AE6C22" stroke="black" stroke-width="0.3"/>
<path d="M186.587 265.471C186.587 265.73 186.465 265.989 186.219 266.239C185.972 266.489 185.607 266.721 185.144 266.919C184.22 267.316 182.932 267.564 181.502 267.564C180.072 267.564 178.784 267.316 177.86 266.919C177.397 266.721 177.032 266.489 176.786 266.239C176.539 265.989 176.417 265.73 176.417 265.471C176.417 265.212 176.539 264.952 176.786 264.703C177.032 264.453 177.397 264.221 177.86 264.022C178.784 263.626 180.072 263.377 181.502 263.377C182.932 263.377 184.22 263.626 185.144 264.022C185.607 264.221 185.972 264.453 186.219 264.703C186.465 264.952 186.587 265.212 186.587 265.471Z" fill="#AE6C22" stroke="black" stroke-width="0.3"/>
<path d="M267.35 266.219C267.35 266.478 267.228 266.737 266.981 266.987C266.735 267.237 266.37 267.469 265.907 267.667C264.983 268.063 263.695 268.312 262.265 268.312C260.835 268.312 259.547 268.063 258.623 267.667C258.16 267.469 257.795 267.237 257.548 266.987C257.302 266.737 257.18 266.478 257.18 266.219C257.18 265.96 257.302 265.7 257.548 265.451C257.795 265.201 258.16 264.968 258.623 264.77C259.547 264.374 260.835 264.125 262.265 264.125C263.695 264.125 264.983 264.374 265.907 264.77C266.37 264.968 266.735 265.201 266.981 265.451C267.228 265.7 267.35 265.96 267.35 266.219Z" fill="#AE6C22" stroke="black" stroke-width="0.3"/>
<path d="M186.587 268.462C186.587 268.721 186.465 268.98 186.219 269.23C185.972 269.48 185.607 269.712 185.144 269.911C184.22 270.307 182.932 270.555 181.502 270.555C180.072 270.555 178.784 270.307 177.86 269.911C177.397 269.712 177.032 269.48 176.786 269.23C176.539 268.98 176.417 268.721 176.417 268.462C176.417 268.203 176.539 267.944 176.786 267.694C177.032 267.444 177.397 267.212 177.86 267.014C178.784 266.617 180.072 266.369 181.502 266.369C182.932 266.369 184.22 266.617 185.144 267.014C185.607 267.212 185.972 267.444 186.219 267.694C186.465 267.944 186.587 268.203 186.587 268.462Z" fill="#AE6C22" stroke="black" stroke-width="0.3"/>
<path d="M267.35 269.21C267.35 269.469 267.228 269.728 266.981 269.978C266.735 270.228 266.37 270.46 265.907 270.658C264.983 271.054 263.695 271.303 262.265 271.303C260.835 271.303 259.547 271.054 258.623 270.658C258.16 270.46 257.795 270.228 257.548 269.978C257.302 269.728 257.18 269.469 257.18 269.21C257.18 268.951 257.302 268.691 257.548 268.442C257.795 268.192 258.16 267.96 258.623 267.761C259.547 267.365 260.835 267.116 262.265 267.116C263.695 267.116 264.983 267.365 265.907 267.761C266.37 267.96 266.735 268.192 266.981 268.442C267.228 268.691 267.35 268.951 267.35 269.21Z" fill="#AE6C22" stroke="black" stroke-width="0.3"/>
<path d="M240.13 58.0798C239.429 58.8679 238.421 61.3918 238.983 62.403C239.299 62.9719 239.737 63.3723 239.777 64.0794C239.818 64.8199 239.332 65.3023 238.983 65.9322C238.331 67.1058 238.188 68.7237 238.188 70.0789C238.188 71.5573 239.579 72.1532 240.13 73.2552" stroke="#BD6F1C" stroke-width="0.3" stroke-linecap="round"/>
<path d="M179.724 40.0034C179.796 39.3552 180.471 38.5508 179.838 37.9531C179.438 37.5746 177.986 37.8487 177.674 38.2379C176.713 39.4392 176.867 41.5616 178.358 42.3069C180.222 43.2391 182.472 42.4132 184.452 43.0156C185.593 43.363 186.801 44.2324 187.641 45.0722C188.221 45.6523 188.765 46.2546 189.432 46.7492C190.051 47.2086 190.62 47.7396 191.349 48.0275C193.497 48.8753 196.03 48.7332 198.291 48.8881" stroke="#BD6F1C" stroke-width="0.3" stroke-linecap="round"/>
<path d="M219.519 54.6475C219.519 60.49 209.378 78.6716 221.807 78.6716" stroke="#BD6F1C" stroke-width="0.3" stroke-linecap="round"/>
<rect x="231.605" y="242.289" width="89.7366" height="1.49561" rx="0.747805" fill="#3F2212"/>
<path d="M335.044 126.476L259.095 227.355" stroke="#3F2212" stroke-width="2" stroke-linecap="round"/>
<path d="M163.555 148.814C162.383 142.449 160.276 141.988 158.32 142.831L156.077 141.335L159.071 136.1L164.207 135.521L167.303 137.617L171.928 140.389C172.711 141.1 174.576 142.507 175.771 142.449C176.966 142.392 178.189 140.836 178.651 140.065L178.507 137.077C178.057 138.097 175.854 139.867 173.406 138.787C170.347 137.437 173.407 131.614 174.504 130.499C175.553 129.433 183.612 130.394 185.049 133.018C186.737 136.1 185.845 137.423 185.373 139.74C185.049 141.335 183.361 144.579 181.927 145.896L176.024 147.678L177.95 156.569C178.058 158.81 177.997 163.754 176.889 165.605C175.78 167.455 174.105 169.982 173.406 171.014L166.9 175.82L162.059 172.743L159.071 168.711L164.191 166.218L165.36 159.423C165.537 157.917 164.751 155.312 163.555 148.814Z" fill="#DDC0B8" stroke="black"/>
<path d="M254.375 62.4545L251.048 63.5634L250.798 75.9249C250.714 80.0783 247.323 83.4014 243.168 83.4014H232.165C230.08 83.4014 228.039 84.0595 226.343 85.2709C224.647 86.4824 222.605 87.1404 220.521 87.1404H212.508H193.813C172.127 93.8707 181.502 116.658 176.614 120.044C172.188 123.11 160.411 132.507 155.675 138.739C151.188 151.057 149.346 177.23 151.188 183.607C153.508 191.64 176.403 214.863 179.605 218.006C181.898 220.257 188.457 227.596 192.274 233.408C193.281 234.941 194.956 235.954 196.791 235.954H200.543V228.476L205.03 221.745L215.5 218.006C216.746 215.763 220.585 210.977 225.969 209.78C231.353 208.584 243.168 196.819 248.403 191.085C249.899 186.1 253.189 174.185 254.385 166.408C255.881 156.686 269.341 143.974 273.828 143.974C278.315 143.974 288.037 126.774 285.793 124.531C283.998 122.736 288.535 112.317 291.028 107.331L332.905 90.8795V117.053C333.403 125.029 335.148 144.422 338.14 158.182C341.879 175.381 350.868 175.82 353.843 176.129C357.236 176.482 369.547 175.381 373.286 173.138C377.025 170.895 380.017 170.895 388.99 173.138C394.633 174.549 396.025 171.432 396 168.581C395.987 167.213 394.935 166.146 393.637 165.713L388.99 164.164C387.245 162.17 383.457 157.733 382.26 155.939C380.764 153.695 377.025 149.956 369.547 150.704C362.069 151.452 356.087 141.73 353.843 138.739C352.049 136.346 354.591 127.273 356.087 123.035C360.574 109.575 369.547 78.3164 369.547 60.9673C369.547 43.6182 356.087 45.2634 349.357 48.2546C329.166 56.2312 288.489 73.466 285.045 75.9234C282.456 77.7717 277.969 77.7717 276.072 75.9234L272.734 71.7893L269.207 67.2546C268.09 65.8181 266.602 64.7138 264.903 64.0605L261.127 62.6079C258.962 61.7753 256.575 61.7211 254.375 62.4545Z" fill="#C18B4E"/>
<path d="M264.508 81.4632L230.716 136.106C229.866 137.481 228.418 138.359 226.805 138.463C206.924 139.752 168.498 142.036 155.329 142.036C141.569 142.036 126.164 153.502 120.182 159.235L102.084 179.668C100.112 181.895 101.693 185.408 104.668 185.408C105.51 185.408 106.319 185.102 106.953 184.549C111.348 180.72 118.3 174.963 117.191 177.182C116.119 179.326 115.767 188.431 124.844 190.305C126.94 190.737 128.818 189.172 130.336 187.663C131.405 186.601 132.803 185.753 134.39 185.456C137.669 184.842 138.647 186.454 142.871 185.821C144.159 185.628 145.238 184.786 145.915 183.674L153.868 170.609C154.775 169.118 156.394 168.209 158.139 168.209H175.52C189.479 169.206 219.79 171.798 229.361 174.191C238.933 176.584 246.81 168.209 249.552 163.722L264.508 142.036C271.737 135.305 284.434 116.442 288.438 96.4193C291.429 81.4627 268.995 74.0332 264.508 81.4632Z" fill="#FCA94D"/>
<path d="M354.245 133.109C349.01 130.866 340.784 130.87 334.054 133.109C329.567 134.602 331.063 139.091 334.054 139.091C341.585 136.831 346.015 136.888 354.245 139.091C357.236 138.343 357.484 133.856 354.245 133.109Z" fill="#F1AC4D"/>
<path d="M198.701 236.306C198.701 236.306 200.442 229.924 203.41 224.314C204.193 222.832 205.446 221.666 206.909 220.847C217.231 215.071 221.518 212.883 227.114 209.385C232.689 205.901 244.758 196.572 247.586 192.292C247.945 191.749 248.115 191.099 248.238 190.46C254.988 155.434 266.048 149.527 271.235 145.822C280.956 136.848 282.822 131.955 285.443 124.136C286.115 122.13 287.98 111.154 290.506 107.785C291.011 107.111 291.846 106.847 292.67 106.67L301.065 104.871C301.617 104.752 302.158 104.587 302.682 104.378L313.112 100.206" stroke="black" stroke-width="2"/>
<circle cx="316.855" cy="110.675" r="13.4605" fill="#9F6D3A"/>
<circle cx="316.107" cy="106.936" r="12.7127" fill="#DDA979"/>
<circle cx="316.107" cy="106.936" r="6.73025" fill="#3F291C"/>
<path d="M209.198 14.2083C206.185 12.1998 208.23 6.18771 210.291 2.09675C210.852 0.983451 212.304 0.754822 213.242 1.57573L217.424 5.23464L224.634 10.2814C224.811 10.4058 225.005 10.4995 225.213 10.5612C229.603 11.862 239.088 14.8634 244.345 17.1995C249.633 19.55 255.355 28.8268 257.682 33.4075C257.766 33.5715 257.822 33.7383 257.856 33.9191C258.848 39.279 260.158 50.7912 257.805 56.0854C255.751 60.7071 250.979 63.0881 247.934 63.9851C247.279 64.178 246.683 63.6139 246.745 62.9342C246.941 60.8007 247.064 57.4432 246.588 54.5898C245.84 50.1029 243.597 48.6073 241.354 47.8595C239.898 47.3744 236.705 51.1182 234.487 54.1464C233.964 54.8597 232.831 54.6328 232.675 53.7623C231.954 49.7312 231.143 43.5484 231.632 39.6337C232.38 33.6512 228.641 29.1644 226.398 25.4254C224.154 21.6863 213.685 17.1995 209.198 14.2083Z" fill="#351F11" stroke="black"/>
<path d="M174.772 65.8231C175.884 65.8231 177.005 65.7239 178.085 66.0159C179.307 66.3462 180.448 67.0823 181.478 67.7954C183.976 69.525 187.223 70.1393 189.612 70.4076C193.507 70.845 195.486 70.7165 198.79 70.0833C200.287 69.5459 199.604 70.1993 202.937 68.7509C206.269 67.3025 207.765 65.8069 209.171 64.3112" stroke="#A9671D" stroke-width="3" stroke-linecap="round"/>
<path d="M173.276 66.5509C173.738 66.5509 174.484 66.3882 174.93 66.2512C175.463 66.0871 176.155 65.9929 176.718 65.9929C178.283 65.9929 179.445 67.0248 180.898 67.3881C182.399 67.7632 183.667 68.8055 185.135 69.2948C186.242 69.6639 187.3 70.0815 188.432 70.3645C189.35 70.5939 190.353 70.9894 191.321 71.0156C192.674 71.0522 194.059 71.2234 195.413 71.0879C196.946 70.9346 198.48 70.5718 199.971 70.1991C200.452 70.079 200.873 69.876 201.294 69.6204C201.644 69.4077 202.105 69.3588 202.462 69.1553C202.94 68.8821 203.476 68.7099 203.971 68.4629C204.987 67.9545 206.068 67.5618 207.086 67.109C207.466 66.9405 207.751 66.6105 208.11 66.4114C208.375 66.2641 209.165 66.0217 209.272 65.8068" stroke="#632700" stroke-width="0.2" stroke-linecap="round"/>
<path d="M170.178 138.354C170.449 137.317 171.402 136.6 172.491 136.6C174.077 136.6 175.262 138.1 174.936 139.685C172.535 151.357 173.479 159.532 175.198 170.086C175.445 171.608 174.275 172.991 172.737 172.991C171.549 172.991 170.527 172.15 170.306 170.988C167.878 158.218 167.325 149.275 170.178 138.354Z" fill="#DFC7AF" stroke="#AE6C22"/>
<path d="M179.96 148.471C179.297 150.827 177.289 151.465 173.937 149.572V153.505C182.979 155.307 183.644 149.13 182.474 145.373C182.392 145.11 181.539 145.422 181.319 145.588C180.28 146.37 180.312 147.22 179.96 148.471Z" fill="#DFC7AF" stroke="#AE6C22"/>
<path d="M19.1864 408.055C10.4155 411.709 2.74091 406.532 0 403.486L52.0773 123L59.3864 148.582C49.6409 233.55 27.9573 404.4 19.1864 408.055Z" fill="#3B8956"/>
<path d="M92.2773 176.905L84.9682 186.955C78.8773 259.132 67.7918 404.4 72.1773 408.055C76.5627 411.709 87.4045 409.577 92.2773 408.055L98.6727 186.955L92.2773 176.905Z" fill="#3B8956"/>
<path d="M148.923 200.659L136.132 211.623C127.3 274.359 110.367 401.476 113.291 408.055C116.215 414.633 129.736 410.795 136.132 408.055L148.923 200.659Z" fill="#3B8956"/>
<path d="M175.418 181.473L166.282 192.436L180.9 408.055H201L175.418 181.473Z" fill="#3B8956"/>
<path d="M4.87866 378.27C5.78452 378.662 6.61178 379.386 7.41981 379.948C7.86559 380.258 8.44403 380.491 8.86096 380.804C9.95744 381.626 11.3898 382.291 12.5926 383.004C14.4351 384.096 16.5347 384.639 18.6357 384.981C20.8337 385.339 22.8472 385.538 25.0547 385.538" stroke="#1B663B" stroke-width="2.74091" stroke-linecap="round"/>
<path d="M11.8234 341.548C14.0336 341.548 15.7365 343.316 17.8255 343.548C19.5127 343.736 21.0829 344.549 22.8273 344.549C24.5332 344.549 26.2177 344.799 27.9541 344.799C29.4073 344.799 30.7085 344.549 32.0806 344.549" stroke="#1B663B" stroke-width="2.74091" stroke-linecap="round"/>
<path d="M18.3256 304.535C19.8459 304.535 21.4219 305.216 22.8272 305.841C23.6271 306.196 24.7049 306.245 25.4531 306.66C26.2857 307.123 27.3863 306.783 28.218 307.161C29.0287 307.529 30.2041 307.237 31.0801 307.286C31.8514 307.329 32.6231 307.536 33.456 307.536C35.0816 307.536 36.7071 307.536 38.3327 307.536" stroke="#1B663B" stroke-width="2.74091" stroke-linecap="round"/>
<path d="M24.0775 277.025C26.1446 277.025 28.3065 278.273 30.3159 278.775C31.6583 279.111 33.1404 279.472 34.5257 279.526C37.1584 279.627 39.7762 279.276 42.334 279.276" stroke="#1B663B" stroke-width="2.74091" stroke-linecap="round"/>
<path d="M28.8292 247.764C32.477 247.764 36.0958 249.265 39.7776 249.265C41.9436 249.265 44.9724 249.696 46.8357 248.765" stroke="#1B663B" stroke-width="2.74091" stroke-linecap="round"/>
<path d="M35.5818 213.002C38.1104 213.002 40.6498 214.503 43.2095 214.503C45.5854 214.503 47.9612 214.503 50.3371 214.503" stroke="#1B663B" stroke-width="2.74091" stroke-linecap="round"/>
<path d="M71.5582 392.76C73.0966 392.76 74.3325 393.543 75.8645 393.543C77.7581 393.543 79.6426 394.065 81.6061 394.065C83.6505 394.065 85.6949 394.065 87.7393 394.065C88.3981 394.065 89.311 394.231 89.9432 394.05C90.464 393.902 91.083 393.543 91.654 393.543" stroke="#1B663B" stroke-width="2.74091" stroke-linecap="round"/>
<path d="M72.8633 362.747C73.7673 362.747 74.5515 363.53 75.3426 363.53C75.9645 363.53 77.25 363.856 77.822 364.11C79.1845 364.715 81.4123 364.313 82.9112 364.313C83.7376 364.313 84.5641 364.313 85.3905 364.313C86.1054 364.313 86.8484 363.791 87.6089 363.791C89.2245 363.791 90.6711 362.747 92.1761 362.747" stroke="#1B663B" stroke-width="2.74091" stroke-linecap="round"/>
<path d="M74.429 334.038C76.2198 334.237 77.8601 335.76 79.6486 335.865C80.2751 335.902 81.1006 336.361 81.7945 336.387C82.7725 336.425 83.7589 336.387 84.7379 336.387C85.9577 336.387 88.3725 336.847 89.4356 336.257C90.671 335.57 92.2881 335.877 93.4808 335.082" stroke="#1B663B" stroke-width="2.74091" stroke-linecap="round"/>
<path d="M75.9949 307.94C77.5774 308.098 79.3792 308.738 80.8956 309.187C82.6135 309.696 84.6391 309.506 86.4343 309.506C89.2033 309.506 91.9419 309.101 94.2638 307.94" stroke="#1B663B" stroke-width="2.74091" stroke-linecap="round"/>
<path d="M77.2999 285.756C77.7063 285.807 78.6078 286.193 78.9963 286.409C79.4768 286.675 80.601 286.49 80.9537 286.931C81.5892 287.725 85.02 287.844 86.0429 287.844C87.6523 287.844 89.2617 287.844 90.8711 287.844C92.2421 287.844 93.566 287.322 94.7859 287.322" stroke="#1B663B" stroke-width="2.74091" stroke-linecap="round"/>
<path d="M79.1267 262.007C81.1431 262.007 83.0679 263.05 84.9989 263.05C86.2455 263.05 87.4817 263.311 88.7831 263.311C90.0913 263.311 91.3247 263.341 92.5674 263.065C93.3778 262.885 95.451 263.025 95.8297 262.268" stroke="#1B663B" stroke-width="2.74091" stroke-linecap="round"/>
<path d="M81.2383 239.83C83.8523 239.83 85.8945 241.277 88.4715 241.277C91.2041 241.277 93.9367 241.277 96.6692 241.277" stroke="#1B663B" stroke-width="2.74091" stroke-linecap="round"/>
<path d="M113.325 396.336C114.771 396.468 116.197 397.247 117.645 397.247C119.197 397.247 121.062 397.817 122.64 398.074C125.085 398.472 127.704 398.159 130.184 398.159C131.454 398.159 132.743 397.551 133.905 397.551C134.65 397.551 135.408 397.095 136.107 397.095" stroke="#1B663B" stroke-width="2.74091" stroke-linecap="round"/>
<path d="M116.515 362.618C118.536 362.618 120.613 363.236 122.649 363.386C125.231 363.578 127.889 363.834 130.488 363.834C131.562 363.834 132.636 363.834 133.711 363.834C134.396 363.834 135.071 363.53 135.727 363.53C136.65 363.53 137.446 362.922 138.385 362.922" stroke="#1B663B" stroke-width="2.74091" stroke-linecap="round"/>
<path d="M119.856 334.369C120.658 334.369 121.371 334.898 122.151 334.985C123.571 335.142 124.903 335.706 126.353 335.854C128.838 336.107 131.297 336.191 133.795 336.191C134.937 336.191 136.145 335.769 137.17 335.314C137.583 335.13 138.578 335.077 138.841 334.748C139.047 334.49 140.034 334.217 140.36 334.217" stroke="#1B663B" stroke-width="2.74091" stroke-linecap="round"/>
<path d="M123.501 306.422C124.091 306.422 124.587 306.719 125.104 306.954C126.069 307.392 127.252 307.72 128.285 307.949C130.408 308.421 132.609 308.852 134.799 308.852C136.246 308.852 137.702 308.658 139.111 308.363C139.513 308.279 141.293 308.049 141.423 307.789" stroke="#1B663B" stroke-width="2.74091" stroke-linecap="round"/>
<path d="M126.691 279.843C129.392 279.843 132.001 280.299 134.74 280.299C136.297 280.299 138.008 280.452 139.533 280.113C140.473 279.904 141.479 279.727 142.452 279.691C142.88 279.675 143.298 279.387 143.701 279.387" stroke="#1B663B" stroke-width="2.74091" stroke-linecap="round"/>
<path d="M130.921 249.12C132.349 249.12 133.751 249.35 135.176 249.35C135.916 249.35 136.635 249.272 137.361 249.235C138.09 249.199 138.849 248.848 139.558 248.769C140.71 248.641 141.932 248.226 143.053 247.977C143.333 247.914 143.61 247.934 143.864 247.862C144.111 247.791 144.471 247.74 144.72 247.74" stroke="#1B663B" stroke-width="2.74091" stroke-linecap="round"/>
<path d="M168.18 221.751C168.58 221.751 168.981 221.761 169.381 221.751C170.289 221.727 171.641 221.791 172.492 221.463C173.135 221.216 173.811 221.073 174.441 220.78C174.939 220.547 175.48 220.215 176 220.051C177.153 219.689 178.156 218.789 178.99 217.956" stroke="#1B663B" stroke-width="2.74091" stroke-linecap="round"/>
<path d="M170.595 253.835C173.009 253.835 175.494 254.038 177.846 253.554C179.622 253.189 181.211 252.443 182.9 251.88" stroke="#1B663B" stroke-width="2.74091" stroke-linecap="round"/>
<path d="M171.63 274.995C173.469 274.995 175.313 275.206 177.15 275.11C178.419 275.043 180.113 274.508 181.29 273.985C182.194 273.583 183.049 273.112 183.935 272.669C184.343 272.465 185.006 271.89 185.43 271.89" stroke="#1B663B" stroke-width="2.74091" stroke-linecap="round"/>
<path d="M172.934 299.841C173.025 299.479 176.997 300.167 177.522 300.313C178.542 300.596 179.854 300.38 180.895 300.38C181.685 300.38 182.491 300.245 183.257 300.245C184.348 300.245 185.381 299.629 186.428 299.571C187.261 299.525 187.994 298.761 188.856 298.761" stroke="#1B663B" stroke-width="2.74091" stroke-linecap="round"/>
<path d="M174.014 318.731C174.489 318.731 174.898 318.975 175.363 319.001C176.159 319.045 177.054 319.289 177.859 319.413C179.585 319.679 181.848 319.752 183.601 319.533C184.254 319.452 185.022 319.298 185.633 319.061C186.538 318.709 187.568 318.71 188.422 318.191C189.231 317.7 190.313 317.665 191.15 317.247" stroke="#1B663B" stroke-width="2.74091" stroke-linecap="round"/>
<path d="M175.633 340.186C177.028 341.426 179.165 341.927 180.925 342.24C182.939 342.598 185.03 342.21 187.035 342.21C187.553 342.21 188.612 341.98 189.126 341.775C189.736 341.531 190.352 341.395 190.948 341.13C191.698 340.797 192.796 340.051 193.579 340.051" stroke="#1B663B" stroke-width="2.74091" stroke-linecap="round"/>
<path d="M176.712 361.1C177.463 361.1 178.376 361.169 179.074 361.437C179.965 361.78 181.164 361.64 182.11 361.64C183.91 361.64 185.677 361.638 187.372 361.033C188.064 360.786 188.73 360.752 189.396 360.455C189.782 360.284 190.263 360.357 190.67 360.283C190.996 360.224 191.36 360.039 191.69 360.021C192.332 359.985 193.123 359.774 193.714 359.511C194.124 359.329 195.417 359.314 195.603 358.941" stroke="#1B663B" stroke-width="2.74091" stroke-linecap="round"/>
<path d="M178.467 385.928C179.115 385.928 179.835 385.837 180.468 385.995C180.864 386.094 181.089 386.198 181.518 386.198C183.01 386.198 184.507 386.333 186.008 386.333C187.44 386.333 188.855 386.224 190.281 386.198C190.826 386.188 191.592 386.121 192.095 385.898C193.377 385.328 194.916 385.154 196.21 384.579C197.051 384.205 197.92 383.892 198.707 383.499" stroke="#1B663B" stroke-width="2.74091" stroke-linecap="round"/>
</svg>
